<svg width="90" height="74" viewBox="0 0 90 74" xmlns="http://www.w3.org/2000/svg"><title>Shape</title><path d="M3.898 37.699L41.898 6c1.801-1.5 4.5-1.5 6.301 0L73 26.801v37.398c0 2.7-2.199 4.898-4.898 4.898L37 69.101V44c0-1 1-2 2-2h12c1 0 2 1 2 2v19.2c0 1.1.898 2 2 2 1.101 0 2-.9 2-2v-19.2c0-3.199-2.801-6-6-6H39c-3.2 0-6 2.801-6 6v25H21.898c-2.7 0-4.899-2.199-4.899-4.898v-29c0-1.102-.898-2-2-2-1.101 0-2 .898-2 2v29c0 4.898 4 8.898 8.899 8.898h12.199c.3.102.601.2.898.2.301 0 .602-.102.899-.2h32.199c4.898 0 8.898-4 8.898-8.898v-34l9.102 7.602c.398.3.8.5 1.3.5.602 0 1.102-.2 1.5-.7.7-.8.602-2.101-.3-2.8l-38-31.7a8.781 8.781 0 0 0-11.398 0l-38 31.7c-.801.699-1 2-.301 2.8.805.797 2.105.996 3.004.196z" fill="#FFF" fill-rule="nonzero"/></svg>