<?xml version="1.0" encoding="UTF-8"?>
<svg width="90px" height="74px" viewBox="0 0 90 74" version="1.1" xmlns="http://www.w3.org/2000/svg" xmlns:xlink="http://www.w3.org/1999/xlink">
    <!-- Generator: Sketch 46.2 (44496) - http://www.bohemiancoding.com/sketch -->
    <title>Shape</title>
    <desc>Created with Sketch.</desc>
    <defs></defs>
    <g id="Page-1" stroke="none" stroke-width="1" fill="none" fill-rule="evenodd">
        <path d="M3.8984,37.699 L41.8984,6 C43.6992,4.5 46.3984,4.5 48.1992,6 L73.0002,26.801 L73.0002,64.199 C73.0002,66.8982 70.801,69.0974 68.1018,69.0974 L36.9998,69.101306 L36.9998,43.999306 C36.9998,42.999306 37.9998,41.999306 38.9998,41.999306 L50.9998,41.999306 C51.9998,41.999306 52.9998,42.999306 52.9998,43.999306 L52.9998,63.198306 C52.9998,64.299906 53.89824,65.198306 54.9998,65.198306 C56.10136,65.198306 56.9998,64.299866 56.9998,63.198306 L56.9998,43.999306 C56.9998,40.800106 54.199,37.999306 50.9998,37.999306 L38.9998,37.999306 C35.8006,37.999306 32.9998,40.800106 32.9998,43.999306 L32.9998,68.999306 L21.8978,68.999306 C19.1986,68.999306 16.9994,66.800106 16.9994,64.100906 L16.9994,35.100906 C16.9994,33.999306 16.10096,33.100906 14.9994,33.100906 C13.89784,33.100906 12.9994,33.999346 12.9994,35.100906 L12.9994,64.100906 C12.9994,68.999306 16.9994,72.999306 21.8978,72.999306 L34.0968,72.999306 C34.39758,73.100866 34.69836,73.198526 34.99524,73.198526 C35.29602,73.198526 35.5968,73.096966 35.89368,72.999306 L68.09268,72.999306 C72.99108,72.999306 76.99108,68.999306 76.99108,64.100906 L76.99108,30.100906 L86.09268,37.702506 C86.49112,38.003286 86.89346,38.202506 87.39348,38.202506 C87.99504,38.202506 88.49508,38.003286 88.89348,37.503286 C89.5927,36.702506 89.49504,35.401686 88.5927,34.702486 L50.5927,3.003486 C47.2919,0.202686 42.4911,0.202686 39.1947,3.003486 L1.1947,34.702486 C0.39392,35.401706 0.1947,36.702486 0.89392,37.503286 C1.69861,38.300166 2.99942,38.499376 3.89782,37.698596 L3.8984,37.699 Z" id="Shape" fill="#FFFFFF" fill-rule="nonzero"></path>
    </g>
</svg>